<?xml version="1.0" encoding="UTF-8"?>
<svg version="1.1" xmlns="http://www.w3.org/2000/svg" width="400" height="400">
<path d="M0 0 C132 0 264 0 400 0 C400 132 400 264 400 400 C268 400 136 400 0 400 C0 268 0 136 0 0 Z " fill="#00CF70" transform="translate(0,0)"/>
<path d="M0 0 C18.15 0 36.3 0 55 0 C62 10 69 20 76 30 C77.155 31.63839844 78.31 33.27679688 79.5 34.96484375 C84.97922138 42.74336749 90.4168636 50.50539524 95.4453125 58.5859375 C97.12463203 61.19352411 98.9139956 63.68787955 100.75 66.1875 C105.98632196 73.34894032 110.97398262 80.68942927 116 88 C116.33 58.96 116.66 29.92 117 0 C136.14 0 155.28 0 175 0 C175 56.1 175 112.2 175 170 C156.85 170 138.7 170 120 170 C115.41854224 163.70049558 110.87030125 157.43701217 106.5 151 C103.37849218 146.42727902 100.22478153 141.89359274 96.9375 137.4375 C93.70326908 133.02901511 90.60905908 128.53919404 87.5625 124 C87.12478271 123.35216553 86.68706543 122.70433105 86.23608398 122.03686523 C84.4633284 119.37615124 83.01605189 117.04815568 82 114 C81.34 114 80.68 114 80 114 C78.37372626 111.59081752 76.86077882 109.18157562 75.375 106.6875 C70.73905861 99.07607647 65.82162701 91.81819641 60.27734375 84.828125 C59 83 59 83 59 81 C58.34 81 57.68 81 57 81 C57 110.37 57 139.74 57 170 C38.19 170 19.38 170 0 170 C0 113.9 0 57.8 0 0 Z " fill="#FCFEFE" transform="translate(113,115)"/>
<path d="M0 0 C19.14 0 38.28 0 58 0 C58.495 1.98 58.495 1.98 59 4 C58.34 3.34 57.68 2.68 57 2 C38.85 1.67 20.7 1.34 2 1 C2 57.1 2 113.2 2 171 C20.81 171 39.62 171 59 171 C59 141.63 59 112.26 59 82 C59.66 82 60.32 82 61 82 C62.79627499 84.3829372 64.47424436 86.76870008 66.125 89.25 C66.61347412 89.97421143 67.10194824 90.69842285 67.60522461 91.44458008 C68.6005625 92.92220012 69.59299572 94.40178091 70.58251953 95.88330078 C71.85481535 97.78319825 73.14029569 99.67296194 74.43359375 101.55859375 C80.20292156 110.03791774 80.20292156 110.03791774 82 115 C82.66 115 83.32 115 84 115 C83.505 116.485 83.505 116.485 83 118 C80.08295585 116.95285594 79.11030225 116.18809437 77.515625 113.46875 C77.09796875 112.4890625 76.6803125 111.509375 76.25 110.5 C75.82203125 109.5203125 75.3940625 108.540625 74.953125 107.53125 C74 105 74 105 74 103 C72.02 102.01 72.02 102.01 70 101 C70 100.34 70 99.68 70 99 C68.515 99.495 68.515 99.495 67 100 C65.68373308 96.38026598 65 93.90432869 65 90 C63.68 90 62.36 90 61 90 C61.33 115.74 61.66 141.48 62 168 C62.66 168.33 63.32 168.66 64 169 C63.01 169.99 62.02 170.98 61 172 C40.87 172 20.74 172 0 172 C0 115.24 0 58.48 0 0 Z " fill="#39C38A" transform="translate(111,114)"/>
<path d="M0 0 C19.14 0 38.28 0 58 0 C58 56.1 58 112.2 58 170 C39.85 170 21.7 170 3 170 C0.36 166.37 -2.28 162.74 -5 159 C-4.505 158.01 -4.505 158.01 -4 157 C-0.38107114 160.24455691 0.65905151 162.31810302 3 167 C20.82 167.33 38.64 167.66 57 168 C57 112.89 57 57.78 57 1 C38.52 1 20.04 1 1 1 C1 30.37 1 59.74 1 90 C0.34 89.67 -0.32 89.34 -1 89 C-0.67 59.63 -0.34 30.26 0 0 Z " fill="#B4F9DD" transform="translate(230,115)"/>
<path d="M0 0 C0.66 0 1.32 0 2 0 C3.79627499 2.3829372 5.47424436 4.76870008 7.125 7.25 C7.61347412 7.97421143 8.10194824 8.69842285 8.60522461 9.44458008 C9.6005625 10.92220012 10.59299572 12.40178091 11.58251953 13.88330078 C12.85481535 15.78319825 14.14029569 17.67296194 15.43359375 19.55859375 C21.20292156 28.03791774 21.20292156 28.03791774 23 33 C23.66 33 24.32 33 25 33 C24.67 33.99 24.34 34.98 24 36 C21.08295585 34.95285594 20.11030225 34.18809437 18.515625 31.46875 C18.09796875 30.4890625 17.6803125 29.509375 17.25 28.5 C16.82203125 27.5203125 16.3940625 26.540625 15.953125 25.53125 C15 23 15 23 15 21 C13.68 20.34 12.36 19.68 11 19 C11 18.34 11 17.68 11 17 C10.01 17.33 9.02 17.66 8 18 C6.68373308 14.38026598 6 11.90432869 6 8 C4.68 8 3.36 8 2 8 C2.33 33.74 2.66 59.48 3 86 C3.66 86.33 4.32 86.66 5 87 C3.625 88.5 3.625 88.5 2 90 C1.34 90 0.68 90 0 90 C0 60.3 0 30.6 0 0 Z " fill="#13C578" transform="translate(170,196)"/>
<path d="M0 0 C3.32036618 3.11615231 5.95229285 6.54189475 8.5625 10.25 C9.19492867 11.10555481 9.19492867 11.10555481 9.84013367 11.97839355 C12.24711352 15.28315022 14.29005886 18.46007272 15.94628906 22.20410156 C18.22003652 26.93090964 20.60808619 30.98085122 25 34 C34.00596039 36.79585358 43.88654843 35.82362392 53.1875 35.5 C55.78702927 35.46792904 58.38665884 35.44311783 60.98632812 35.42578125 C67.3277964 35.36775727 73.66216891 35.21934565 80 35 C80 35.66 80 36.32 80 37 C60.86 37 41.72 37 22 37 C21.505 34.525 21.505 34.525 21 32 C20.01 31.34 19.02 30.68 18 30 C15 24.66666667 15 24.66666667 15 22 C14.34 22 13.68 22 13 22 C12.5875 21.071875 12.175 20.14375 11.75 19.1875 C10.04014879 16.07312814 8.8388153 14.95780365 6 13 C6 12.34 6 11.68 6 11 C5.01 11.33 4.02 11.66 3 12 C2.67 9.36 2.34 6.72 2 4 C1.34 4 0.68 4 0 4 C0 2.68 0 1.36 0 0 Z " fill="#23BD78" transform="translate(208,250)"/>
<path d="M0 0 C18.48 0 36.96 0 56 0 C56 0.33 56 0.66 56 1 C37.85 1 19.7 1 1 1 C1 30.7 1 60.4 1 91 C-0.485 91.495 -0.485 91.495 -2 92 C-2.66 91.34 -3.32 90.68 -4 90 C-4 89.01 -4 88.02 -4 87 C-4.66 87 -5.32 87 -6 87 C-6.495 84.03 -6.495 84.03 -7 81 C-4.20127563 83.52788007 -2.54226981 85.20411134 -2 89 C-1.34 89 -0.68 89 0 89 C0 59.63 0 30.26 0 0 Z " fill="#DDFEF3" transform="translate(231,116)"/>
<path d="M0 0 C3.69952441 3.37309579 6.35682515 6.87869215 9.0625 11.078125 C10.62681258 13.43720929 12.22887315 15.74526723 13.875 18.046875 C14.65895142 19.14370605 14.65895142 19.14370605 15.45874023 20.26269531 C16.50168527 21.71764253 17.54790077 23.17025286 18.59790039 24.62011719 C22.12536199 29.55615168 25.15946674 34.64020759 28 40 C24.19091797 39.22314453 24.19091797 39.22314453 22.47265625 37.21484375 C22.00730469 36.46332031 21.54195312 35.71179688 21.0625 34.9375 C20.55460937 34.12796875 20.04671875 33.3184375 19.5234375 32.484375 C18.76933594 31.25460938 18.76933594 31.25460938 18 30 C17.27683594 28.89398438 17.27683594 28.89398438 16.5390625 27.765625 C14.41744461 24.50348419 12.79037767 21.84990414 12 18 C10.68 17.67 9.36 17.34 8 17 C8 16.01 8 15.02 8 14 C7.01 13.67 6.02 13.34 5 13 C5 11.68 5 10.36 5 9 C4.34 9 3.68 9 3 9 C2.01 6.03 1.02 3.06 0 0 Z " fill="#C3FAE5" transform="translate(180,134)"/>
<path d="M0 0 C0.33 0 0.66 0 1 0 C1 29.37 1 58.74 1 89 C-2.48048937 85.51951063 -4.03043666 83.33303934 -6 79 C-5.34 79 -4.68 79 -4 79 C-4 79.66 -4 80.32 -4 81 C-3.34 81 -2.68 81 -2 81 C-2 81.66 -2 82.32 -2 83 C-1.34 83 -0.68 83 0 83 C0 55.61 0 28.22 0 0 Z " fill="#24BC7C" transform="translate(229,115)"/>
<path d="M0 0 C0.66 0 1.32 0 2 0 C3.625 2 3.625 2 5 4 C4.67 4.66 4.34 5.32 4 6 C3.01 5.67 2.02 5.34 1 5 C1 32.72 1 60.44 1 89 C0.67 89 0.34 89 0 89 C0 59.63 0 30.26 0 0 Z " fill="#4ECF99" transform="translate(170,196)"/>
<path d="M0 0 C1.32 0 2.64 0 4 0 C4.33 1.32 4.66 2.64 5 4 C5.66 4 6.32 4 7 4 C9.01037342 6.17120329 9.92953274 7.63885529 10.5 10.5625 C11.08184282 13.39898372 11.96496674 14.0497598 14 16 C14.6875 18.1875 14.6875 18.1875 15 20 C15.66 20 16.32 20 17 20 C19 23 19 23 19 27 C19.66 27.33 20.32 27.66 21 28 C20.01 28 19.02 28 18 28 C16.11307863 25.5782506 14.42178016 23.18936737 12.75 20.625 C11.77001939 19.15592426 10.78955053 17.6871741 9.80859375 16.21875 C9.33147949 15.49816406 8.85436523 14.77757812 8.36279297 14.03515625 C6.04216695 10.56959937 3.58953811 7.19865922 1.14453125 3.8203125 C0 2 0 2 0 0 Z " fill="#2AC581" transform="translate(203,165)"/>
<path d="M0 0 C3.33853463 3.13273455 6.00345321 6.58042959 8.625 10.3125 C9.05087402 10.91336426 9.47674805 11.51422852 9.91552734 12.13330078 C14.74988976 18.99480529 19.38533908 25.98964278 24 33 C23.01 33.495 23.01 33.495 22 34 C18.66488612 31.0098979 16.78478881 28.10501426 15 24 C15 23.34 15 22.68 15 22 C14.34 22 13.68 22 13 22 C12.5875 21.071875 12.175 20.14375 11.75 19.1875 C10.04014879 16.07312814 8.8388153 14.95780365 6 13 C6 12.34 6 11.68 6 11 C5.01 11.33 4.02 11.66 3 12 C2.67 9.36 2.34 6.72 2 4 C1.34 4 0.68 4 0 4 C0 2.68 0 1.36 0 0 Z " fill="#3EC58B" transform="translate(208,250)"/>
<path d="M0 0 C4.4995905 4.4995905 4.4995905 4.4995905 6.4375 7.4609375 C6.85773438 8.09773437 7.27796875 8.73453125 7.7109375 9.390625 C8.13632813 10.04546875 8.56171875 10.7003125 9 11.375 C9.42539063 12.02210938 9.85078125 12.66921875 10.2890625 13.3359375 C11.12796935 14.61231112 11.96398354 15.89059139 12.796875 17.17089844 C13.58585377 18.37037672 14.3875975 19.56157592 15.203125 20.74316406 C18 24.7981404 18 24.7981404 18 27 C18.66 27 19.32 27 20 27 C19.67 27.99 19.34 28.98 19 30 C16.08295585 28.95285594 15.11030225 28.18809437 13.515625 25.46875 C13.09796875 24.4890625 12.6803125 23.509375 12.25 22.5 C11.82203125 21.5203125 11.3940625 20.540625 10.953125 19.53125 C10 17 10 17 10 15 C8.68 14.34 7.36 13.68 6 13 C6 12.34 6 11.68 6 11 C5.01 11.33 4.02 11.66 3 12 C2.01 8.04 1.02 4.08 0 0 Z " fill="#31CA87" transform="translate(175,202)"/>
<path d="M0 0 C0.99 0.33 1.98 0.66 3 1 C3.69353422 2.47375606 4.32546887 3.97698446 4.91870117 5.49389648 C6.52550531 8.50443133 7.25089197 9.7516038 10.53140259 10.83938599 C13.8161084 11.14021806 17.00288998 11.16781069 20.30078125 11.09765625 C21.49229294 11.10711777 22.68380463 11.11657928 23.91142273 11.12632751 C27.71304403 11.14690815 31.51111779 11.10549282 35.3125 11.0625 C37.89128415 11.06557441 40.47006688 11.07268766 43.04882812 11.08398438 C49.36661693 11.10283277 55.68261415 11.07080031 62 11 C62 11.33 62 11.66 62 12 C54.29604704 12.25400875 46.59317626 12.42885392 38.88598633 12.54931641 C36.26578424 12.59953978 33.6458615 12.66773478 31.02661133 12.75439453 C27.25532169 12.87602596 23.48773981 12.93247506 19.71484375 12.9765625 C18.54791489 13.02817535 17.38098602 13.07978821 16.17869568 13.13296509 C8.20042248 13.13844028 8.20042248 13.13844028 4.65652466 9.77752686 C0 3.30163872 0 3.30163872 0 0 Z " fill="#DDFEF5" transform="translate(225,272)"/>
<path d="M0 0 C2.99324263 1.0975223 3.84610901 1.67682892 5.25 4.625 C5.4975 5.40875 5.745 6.1925 6 7 C6.66 7 7.32 7 8 7 C9.4606285 9.64738916 10 10.89448334 10 14 C10.66 14 11.32 14 12 14 C12.33 15.65 12.66 17.3 13 19 C9.88841418 16.09402558 7.62542886 13.10861721 5.375 9.5 C4.78460938 8.5615625 4.19421875 7.623125 3.5859375 6.65625 C2.28115628 4.47090215 1.09380579 2.29590919 0 0 Z " fill="#28C480" transform="translate(180,132)"/>
<path d="M0 0 C4.85226047 4.67896546 8.35422797 8.05795068 9 15 C8.01 14.34 7.02 13.68 6 13 C6 12.34 6 11.68 6 11 C5.01 11.33 4.02 11.66 3 12 C2.67 9.36 2.34 6.72 2 4 C1.34 4 0.68 4 0 4 C0 2.68 0 1.36 0 0 Z " fill="#20C57E" transform="translate(208,250)"/>
<path d="M0 0 C4.24404412 3.88026891 7.10917547 8.04254346 10 13 C9.34 13.66 8.68 14.32 8 15 C5.23863848 12.61518778 4.28586071 10.37538437 3 7 C2.46375 6.113125 1.9275 5.22625 1.375 4.3125 C0 2 0 2 0 0 Z " fill="#C8FCE9" transform="translate(209,176)"/>
<path d="M0 0 C2.22111286 0.38295049 3.80380283 0.86920188 5.6875 2.125 C7.63305811 4.90436873 7.68668789 7.67889163 8 11 C2.19794344 5.35475578 2.19794344 5.35475578 0 2 C0 1.34 0 0.68 0 0 Z " fill="#CAFCEA" transform="translate(208,248)"/>
<path d="M0 0 C5.57142857 5.14285714 5.57142857 5.14285714 6 9 C6.66 9 7.32 9 8 9 C7.67 9.99 7.34 10.98 7 12 C5.1875 11.4375 5.1875 11.4375 3 10 C1.21313946 6.49009536 0 3.95875396 0 0 Z " fill="#23C57F" transform="translate(187,220)"/>
<path d="M0 0 C1.32 0 2.64 0 4 0 C4.33 1.32 4.66 2.64 5 4 C5.66 4 6.32 4 7 4 C8.6875 5.75 8.6875 5.75 10 8 C9.6875 10.25 9.6875 10.25 9 12 C8.71125 11.360625 8.4225 10.72125 8.125 10.0625 C7.17176549 7.84793921 7.17176549 7.84793921 5 7 C5 6.34 5 5.68 5 5 C4.01 5 3.02 5 2 5 C1.34 3.35 0.68 1.7 0 0 Z " fill="#17C87A" transform="translate(203,165)"/>
<path d="M0 0 C0.66 0 1.32 0 2 0 C2 0.66 2 1.32 2 2 C2.99 2.33 3.98 2.66 5 3 C5 3.66 5 4.32 5 5 C5.66 5.33 6.32 5.66 7 6 C7.66666667 8 8.33333333 10 9 12 C9.66 12.33 10.32 12.66 11 13 C10.01 13 9.02 13 8 13 C5.95703125 10.41015625 5.95703125 10.41015625 3.8125 7.0625 C3.09707031 5.96035156 2.38164062 4.85820312 1.64453125 3.72265625 C0 1 0 1 0 0 Z " fill="#D3FDEC" transform="translate(176,202)"/>
<path d="M0 0 C3.76591888 1.68065801 5.1379634 3.27592679 7 7 C7 7.66 7 8.32 7 9 C7.66 9 8.32 9 9 9 C9.33 10.65 9.66 12.3 10 14 C5.40783094 9.93265026 2.7832093 5.43614072 0 0 Z " fill="#2EC382" transform="translate(170,118)"/>
<path d="M0 0 C3.65392651 1.2179755 3.95831699 2.14396506 5.75 5.4375 C6.19859375 6.24058594 6.6471875 7.04367187 7.109375 7.87109375 C7.40328125 8.57363281 7.6971875 9.27617187 8 10 C7.67 10.66 7.34 11.32 7 12 C5.82767315 10.3790787 4.6622923 8.75313167 3.5 7.125 C2.8503125 6.22007812 2.200625 5.31515625 1.53125 4.3828125 C0 2 0 2 0 0 Z " fill="#C3FCE6" transform="translate(225,272)"/>
<path d="M0 0 C0 2.64 0 5.28 0 8 C-0.66 7.67 -1.32 7.34 -2 7 C-2 6.34 -2 5.68 -2 5 C-2.66 5 -3.32 5 -4 5 C-4.33 3.68 -4.66 2.36 -5 1 C-2 0 -2 0 0 0 Z " fill="#D1FBEC" transform="translate(197,224)"/>
<path d="M0 0 C0.66 0 1.32 0 2 0 C2 0.66 2 1.32 2 2 C2.99 2.33 3.98 2.66 5 3 C6.6875 6.0625 6.6875 6.0625 8 9 C7.01 9.495 7.01 9.495 6 10 C4.99723227 8.52270825 3.99785546 7.04311423 3 5.5625 C2.443125 4.73878906 1.88625 3.91507813 1.3125 3.06640625 C0 1 0 1 0 0 Z " fill="#38C68A" transform="translate(206,170)"/>
<path d="M0 0 C5.57142857 5.14285714 5.57142857 5.14285714 6 9 C2.56225537 7.85408512 1.82586841 7.04311402 0 4 C0 2.68 0 1.36 0 0 Z " fill="#38C989" transform="translate(195,231)"/>
<path d="M0 0 C2.96404505 2.80804268 5.44499019 5.18315774 7 9 C5 9 5 9 2.9375 7.3125 C0.82124375 4.78664577 0.35880982 3.22928839 0 0 Z " fill="#2AC581" transform="translate(225,275)"/>
<path d="M0 0 C2.6855594 2.6855594 3.06049974 5.37621328 4 9 C1.33264727 6.51047079 -0.55746343 4.36591866 -2 1 C-1.34 0.67 -0.68 0.34 0 0 Z " fill="#CDFAE9" transform="translate(188,216)"/>
<path d="M0 0 C3.08089673 2.77280706 4.68775452 5.06326356 6 9 C3 8 3 8 1.3125 5.625 C0 3 0 3 0 0 Z " fill="#C0FAE4" transform="translate(169,118)"/>
<path d="M0 0 C1.32 0.33 2.64 0.66 4 1 C4.33 2.98 4.66 4.96 5 7 C3.29115995 5.37660195 1.62553283 3.70680947 0 2 C0 1.34 0 0.68 0 0 Z " fill="#D3FCEF" transform="translate(195,158)"/>
<path d="M0 0 C3 1 3 1 4.75 3.9375 C5.1625 4.948125 5.575 5.95875 6 7 C5.67 7.66 5.34 8.32 5 9 C4.16094435 7.87926138 3.32892169 6.75325453 2.5 5.625 C2.0359375 4.99851563 1.571875 4.37203125 1.09375 3.7265625 C0 2 0 2 0 0 Z " fill="#27C07F" transform="translate(197,156)"/>
<path d="M0 0 C0.99 0 1.98 0 3 0 C4.75 2.3125 4.75 2.3125 6 5 C5.67 5.99 5.34 6.98 5 8 C4.16382818 6.8562364 3.33113541 5.70992861 2.5 4.5625 C2.0359375 3.92441406 1.571875 3.28632813 1.09375 2.62890625 C0 1 0 1 0 0 Z " fill="#C2FBE6" transform="translate(202,240)"/>
<path d="M0 0 C1.70884005 1.62339805 3.37446717 3.29319053 5 5 C5 5.66 5 6.32 5 7 C3.68 7 2.36 7 1 7 C0.67 4.69 0.34 2.38 0 0 Z " fill="#C2F9E7" transform="translate(219,190)"/>
</svg>
